<svg viewBox="0 0 120 120" xmlns="http://www.w3.org/2000/svg">
  <defs>
    <linearGradient id="metalGrad" x1="0%" y1="0%" x2="100%" y2="100%">
      <stop offset="0%" stop-color="#e2e8f0" />
      <stop offset="35%" stop-color="#94a3b8" />
      <stop offset="65%" stop-color="#64748b" />
      <stop offset="100%" stop-color="#cbd5e1" />
    </linearGradient>
    <radialGradient id="hubGrad" cx="50%" cy="50%" r="50%">
      <stop offset="0%" stop-color="#f1f5f9" />
      <stop offset="60%" stop-color="#cbd5e1" />
      <stop offset="100%" stop-color="#94a3b8" />
    </radialGradient>
    <radialGradient id="bgGrad" cx="50%" cy="50%" r="50%">
      <stop offset="0%" stop-color="#0f172a" />
      <stop offset="70%" stop-color="#060d18" />
      <stop offset="100%" stop-color="#060d18" />
    </radialGradient>
    <linearGradient id="ringGrad" x1="0%" y1="0%" x2="100%" y2="100%">
      <stop offset="0%" stop-color="#334155" />
      <stop offset="50%" stop-color="#1e293b" />
      <stop offset="100%" stop-color="#334155" />
    </linearGradient>
    <clipPath id="fanClip"><circle cx="60" cy="60" r="52" /></clipPath>
  </defs>
  <circle cx="60" cy="60" r="58" fill="url(#bgGrad)" />
  <circle cx="60" cy="60" r="56" fill="none" stroke="url(#ringGrad)" stroke-width="3.5" />
  <circle cx="60" cy="60" r="51" fill="none" stroke="#1e293b" stroke-width="0.8" opacity="0.8" />
  <circle cx="60" cy="60" r="48" fill="none" stroke="#334155" stroke-width="0.5" opacity="0.5" />
    <line x1="113.0000000000" y1="60.0000000000" x2="110.5000000000" y2="60.0000000000" stroke="#94a3b8" stroke-width="0.6" opacity="0.5" />
    <line x1="112.1948109096" y1="69.2033534163" x2="111.0130416060" y2="68.9949756031" stroke="#94a3b8" stroke-width="0.35" opacity="0.25" />
    <line x1="109.8037089017" y1="78.1270675963" x2="108.6760777567" y2="77.7166434243" stroke="#94a3b8" stroke-width="0.35" opacity="0.25" />
    <line x1="105.8993464006" y1="86.5000000000" x2="103.7342828911" y2="85.2500000000" stroke="#94a3b8" stroke-width="0.6" opacity="0.5" />
    <line x1="100.6003554853" y1="94.0677433134" x2="99.6811021536" y2="93.2963981818" stroke="#94a3b8" stroke-width="0.35" opacity="0.25" />
    <line x1="94.0677433134" y1="100.6003554853" x2="93.2963981818" y2="99.6811021536" stroke="#94a3b8" stroke-width="0.35" opacity="0.25" />
    <line x1="86.5000000000" y1="105.8993464006" x2="85.2500000000" y2="103.7342828911" stroke="#94a3b8" stroke-width="0.6" opacity="0.5" />
    <line x1="78.1270675963" y1="109.8037089017" x2="77.7166434243" y2="108.6760777567" stroke="#94a3b8" stroke-width="0.35" opacity="0.25" />
    <line x1="69.2033534163" y1="112.1948109096" x2="68.9949756031" y2="111.0130416060" stroke="#94a3b8" stroke-width="0.35" opacity="0.25" />
    <line x1="60.0000000000" y1="113.0000000000" x2="60.0000000000" y2="110.5000000000" stroke="#94a3b8" stroke-width="0.6" opacity="0.5" />
    <line x1="50.7966465837" y1="112.1948109096" x2="51.0050243969" y2="111.0130416060" stroke="#94a3b8" stroke-width="0.35" opacity="0.25" />
    <line x1="41.8729324037" y1="109.8037089017" x2="42.2833565757" y2="108.6760777567" stroke="#94a3b8" stroke-width="0.35" opacity="0.25" />
    <line x1="33.5000000000" y1="105.8993464006" x2="34.7500000000" y2="103.7342828911" stroke="#94a3b8" stroke-width="0.6" opacity="0.5" />
    <line x1="25.9322566866" y1="100.6003554853" x2="26.7036018182" y2="99.6811021536" stroke="#94a3b8" stroke-width="0.35" opacity="0.25" />
    <line x1="19.3996445147" y1="94.0677433134" x2="20.3188978464" y2="93.2963981818" stroke="#94a3b8" stroke-width="0.35" opacity="0.25" />
    <line x1="14.1006535994" y1="86.5000000000" x2="16.2657171089" y2="85.2500000000" stroke="#94a3b8" stroke-width="0.6" opacity="0.5" />
    <line x1="10.1962910983" y1="78.1270675963" x2="11.3239222433" y2="77.7166434243" stroke="#94a3b8" stroke-width="0.35" opacity="0.25" />
    <line x1="7.8051890904" y1="69.2033534163" x2="8.9869583940" y2="68.9949756031" stroke="#94a3b8" stroke-width="0.35" opacity="0.25" />
    <line x1="7.0000000000" y1="60.0000000000" x2="9.5000000000" y2="60.0000000000" stroke="#94a3b8" stroke-width="0.6" opacity="0.5" />
    <line x1="7.8051890904" y1="50.7966465837" x2="8.9869583940" y2="51.0050243969" stroke="#94a3b8" stroke-width="0.35" opacity="0.25" />
    <line x1="10.1962910983" y1="41.8729324037" x2="11.3239222433" y2="42.2833565757" stroke="#94a3b8" stroke-width="0.35" opacity="0.25" />
    <line x1="14.1006535994" y1="33.5000000000" x2="16.2657171089" y2="34.7500000000" stroke="#94a3b8" stroke-width="0.6" opacity="0.5" />
    <line x1="19.3996445147" y1="25.9322566866" x2="20.3188978464" y2="26.7036018182" stroke="#94a3b8" stroke-width="0.35" opacity="0.25" />
    <line x1="25.9322566866" y1="19.3996445147" x2="26.7036018182" y2="20.3188978464" stroke="#94a3b8" stroke-width="0.35" opacity="0.25" />
    <line x1="33.5000000000" y1="14.1006535994" x2="34.7500000000" y2="16.2657171089" stroke="#94a3b8" stroke-width="0.6" opacity="0.5" />
    <line x1="41.8729324037" y1="10.1962910983" x2="42.2833565757" y2="11.3239222433" stroke="#94a3b8" stroke-width="0.35" opacity="0.25" />
    <line x1="50.7966465837" y1="7.8051890904" x2="51.0050243969" y2="8.9869583940" stroke="#94a3b8" stroke-width="0.35" opacity="0.25" />
    <line x1="60.0000000000" y1="7.0000000000" x2="60.0000000000" y2="9.5000000000" stroke="#94a3b8" stroke-width="0.6" opacity="0.5" />
    <line x1="69.2033534163" y1="7.8051890904" x2="68.9949756031" y2="8.9869583940" stroke="#94a3b8" stroke-width="0.35" opacity="0.25" />
    <line x1="78.1270675963" y1="10.1962910983" x2="77.7166434243" y2="11.3239222433" stroke="#94a3b8" stroke-width="0.35" opacity="0.25" />
    <line x1="86.5000000000" y1="14.1006535994" x2="85.2500000000" y2="16.2657171089" stroke="#94a3b8" stroke-width="0.6" opacity="0.5" />
    <line x1="94.0677433134" y1="19.3996445147" x2="93.2963981818" y2="20.3188978464" stroke="#94a3b8" stroke-width="0.35" opacity="0.25" />
    <line x1="100.6003554853" y1="25.9322566866" x2="99.6811021536" y2="26.7036018182" stroke="#94a3b8" stroke-width="0.35" opacity="0.25" />
    <line x1="105.8993464006" y1="33.5000000000" x2="103.7342828911" y2="34.7500000000" stroke="#94a3b8" stroke-width="0.6" opacity="0.5" />
    <line x1="109.8037089017" y1="41.8729324037" x2="108.6760777567" y2="42.2833565757" stroke="#94a3b8" stroke-width="0.35" opacity="0.25" />
    <line x1="112.1948109096" y1="50.7966465837" x2="111.0130416060" y2="51.0050243969" stroke="#94a3b8" stroke-width="0.35" opacity="0.25" />
  <g clip-path="url(#fanClip)">
    <g transform="translate(60,60) scale(0.80)">
      <g id="blade" fill="url(#metalGrad)">
        <path d="M 2 -18 C 8 -30, 22 -40, 34 -42 C 45 -44, 50 -42, 52 -38 C 54 -33, 49 -27, 42 -24 C 33 -20, 22 -15, 14 -9 C 6 -3, 0 4, -2 10 C -4 15, -6 18, -10 18 C -14 18, -16 14, -16 10 C -16 2, -10 -8, 2 -18 Z" />
      </g>
      <use href="#blade" transform="rotate(0)" />
      <use href="#blade" transform="rotate(60)" />
      <use href="#blade" transform="rotate(120)" />
      <use href="#blade" transform="rotate(180)" />
      <use href="#blade" transform="rotate(240)" />
      <use href="#blade" transform="rotate(300)" />
    </g>
  </g>
  <circle cx="60" cy="60" r="13.5" fill="#0f172a" stroke="#334155" stroke-width="1" />
  <circle cx="60" cy="60" r="11.5" fill="url(#hubGrad)" stroke="#94a3b8" stroke-width="0.6" />
  <circle cx="60" cy="60" r="8" fill="none" stroke="#94a3b8" stroke-width="0.4" opacity="0.6" />
  <circle cx="60" cy="60" r="4.5" fill="#1e293b" stroke="#334155" stroke-width="0.5" />
  <circle cx="60" cy="60" r="2" fill="#0f172a" />
</svg>